<svg width="17" height="18" viewBox="0 0 17 18" fill="none" xmlns="http://www.w3.org/2000/svg">
<path d="M15.136 0.765625C15.6298 0.765625 16.1033 0.961771 16.4525 1.31091C16.8016 1.66006 16.9978 2.13359 16.9978 2.62736V15.6595C16.9978 16.1532 16.8016 16.6268 16.4525 16.9759C16.1033 17.3251 15.6298 17.5212 15.136 17.5212H2.10392C1.61016 17.5212 1.13662 17.3251 0.787476 16.9759C0.438334 16.6268 0.242188 16.1532 0.242188 15.6595V2.62736C0.242188 2.13359 0.438334 1.66006 0.787476 1.31091C1.13662 0.961771 1.61016 0.765625 2.10392 0.765625H15.136ZM14.6706 15.194V10.2605C14.6706 9.45562 14.3509 8.68376 13.7818 8.11465C13.2127 7.54555 12.4408 7.22583 11.636 7.22583C10.8447 7.22583 9.92319 7.70988 9.47638 8.43596V7.4027H6.87926V15.194H9.47638V10.6049C9.47638 9.88811 10.0535 9.30166 10.7703 9.30166C11.1159 9.30166 11.4474 9.43897 11.6918 9.68337C11.9362 9.92777 12.0735 10.2592 12.0735 10.6049V15.194H14.6706ZM3.85395 5.94124C4.26871 5.94124 4.66648 5.77648 4.95976 5.4832C5.25304 5.18992 5.4178 4.79214 5.4178 4.37738C5.4178 3.51168 4.71965 2.80422 3.85395 2.80422C3.43672 2.80422 3.03658 2.96996 2.74155 3.26499C2.44653 3.56002 2.28078 3.96016 2.28078 4.37738C2.28078 5.24309 2.98824 5.94124 3.85395 5.94124ZM5.14785 15.194V7.4027H2.56935V15.194H5.14785Z" fill="url(#paint0_linear_1_18417)"/>
<defs>
<linearGradient id="paint0_linear_1_18417" x1="8.61998" y1="0.765625" x2="8.61998" y2="17.5212" gradientUnits="userSpaceOnUse">
<stop stop-color="#5487F8"/>
<stop offset="1" stop-color="#1D4DB5"/>
</linearGradient>
</defs>
</svg>
