<svg width="156" height="42" viewBox="0 0 156 42" fill="none" xmlns="http://www.w3.org/2000/svg">
<path d="M8.90201 22.0127V41.2515H0.614746V15.22H26.6737V41.2515H18.3876V22.0127H8.90201Z" fill="black"/>
<path d="M42.2508 41.2529H33.9635V15.2212H42.2508V41.2529ZM33.1465 5.21206C33.1465 2.61897 35.3813 0.545166 38.1082 0.545166C40.8351 0.545166 43.0134 2.61897 43.0134 5.21206C43.0134 7.80515 40.7775 9.87891 38.1082 9.87891C35.4389 9.87891 33.1465 7.80404 33.1465 5.21206Z" fill="black"/>
<path d="M57.7745 0.390381H49.4883V41.252H57.7745V0.390381Z" fill="black"/>
<path d="M73.2964 0.390381H65.0103V41.252H73.2964V0.390381Z" fill="black"/>
<path d="M88.8232 41.2517H80.537V15.2202H88.8232V41.2517ZM79.7185 5.21205C79.7185 2.61897 81.9533 0.545166 84.6809 0.545166C87.4077 0.545166 89.5857 2.61897 89.5857 5.21205C89.5857 7.80514 87.351 9.87893 84.6809 9.87893C82.01 9.87893 79.7185 7.80404 79.7185 5.21205Z" fill="black"/>
<path d="M109.03 35.0811C113.01 35.0811 116.008 32.1249 116.008 28.2363C116.008 24.3478 113.01 21.3915 109.03 21.3915C105.051 21.3915 101.997 24.3478 101.997 28.2363C101.997 32.1249 104.996 35.0811 109.03 35.0811ZM109.03 14.5977C116.989 14.5977 123.749 20.4061 123.749 28.2363C123.749 36.0665 116.989 41.8749 109.03 41.8749C101.071 41.8749 94.2568 36.0676 94.2568 28.2363C94.2568 20.405 101.072 14.5977 109.03 14.5977Z" fill="black"/>
<path d="M137.527 22.0127V41.2515H129.242V15.22H155.298V41.2515H147.013V22.0127H137.527Z" fill="black"/>
</svg>
